<?xml version="1.0" encoding="UTF-8"?>
<svg xmlns="http://www.w3.org/2000/svg" xmlns:xlink="http://www.w3.org/1999/xlink" width="512px" height="512px" viewBox="0 0 512 512" version="1.1">
<defs>
<linearGradient id="linear0" gradientUnits="userSpaceOnUse" x1="0" y1="0" x2="1" y2="1" gradientTransform="matrix(25.799805,0,0,29.083496,3.100098,1.458252)">
<stop offset="0" style="stop-color:rgb(0%,83.137255%,100%);stop-opacity:1;"/>
<stop offset="1" style="stop-color:rgb(48.627451%,22.745098%,92.941176%);stop-opacity:1;"/>
</linearGradient>
<linearGradient id="linear1" gradientUnits="userSpaceOnUse" x1="0" y1="0" x2="1" y2="1" gradientTransform="matrix(176,0,0,208,168,152)">
<stop offset="0" style="stop-color:rgb(0%,83.137255%,100%);stop-opacity:1;"/>
<stop offset="1" style="stop-color:rgb(48.627451%,22.745098%,92.941176%);stop-opacity:1;"/>
</linearGradient>
</defs>
<g id="surface1">
<path style=" stroke:none;fill-rule:nonzero;fill:rgb(5.098039%,6.666667%,9.019608%);fill-opacity:1;" d="M 112 0 L 400 0 C 461.855469 0 512 50.144531 512 112 L 512 400 C 512 461.855469 461.855469 512 400 512 L 112 512 C 50.144531 512 0 461.855469 0 400 L 0 112 C 0 50.144531 50.144531 0 112 0 Z M 112 0 "/>
<path style="fill:none;stroke-width:1.8;stroke-linecap:butt;stroke-linejoin:miter;stroke:url(#linear0);stroke-miterlimit:4;" d="M 16 2.5 L 28 9.5 L 28 22.5 L 16 29.5 L 4 22.5 L 4 9.5 Z M 16 2.5 " transform="matrix(16,0,0,16,0,0)"/>
<path style=" stroke:none;fill-rule:nonzero;fill:url(#linear1);" d="M 168 256 L 256 152 L 344 256 L 256 360 Z M 168 256 "/>
</g>
</svg>
