<?xml version="1.0" encoding="UTF-8"?>
<svg xmlns="http://www.w3.org/2000/svg" xmlns:xlink="http://www.w3.org/1999/xlink" width="192px" height="192px" viewBox="0 0 192 192" version="1.1">
<defs>
<linearGradient id="linear0" gradientUnits="userSpaceOnUse" x1="0" y1="0" x2="1" y2="1" gradientTransform="matrix(25.799479,0,0,29.084635,3.10026,1.457682)">
<stop offset="0" style="stop-color:rgb(0%,83.137255%,100%);stop-opacity:1;"/>
<stop offset="1" style="stop-color:rgb(48.627451%,22.745098%,92.941176%);stop-opacity:1;"/>
</linearGradient>
<linearGradient id="linear1" gradientUnits="userSpaceOnUse" x1="0" y1="0" x2="1" y2="1" gradientTransform="matrix(66,0,0,78,63,57)">
<stop offset="0" style="stop-color:rgb(0%,83.137255%,100%);stop-opacity:1;"/>
<stop offset="1" style="stop-color:rgb(48.627451%,22.745098%,92.941176%);stop-opacity:1;"/>
</linearGradient>
</defs>
<g id="surface1">
<path style=" stroke:none;fill-rule:nonzero;fill:rgb(5.098039%,6.666667%,9.019608%);fill-opacity:1;" d="M 42 0 L 150 0 C 173.195312 0 192 18.804688 192 42 L 192 150 C 192 173.195312 173.195312 192 150 192 L 42 192 C 18.804688 192 0 173.195312 0 150 L 0 42 C 0 18.804688 18.804688 0 42 0 Z M 42 0 "/>
<path style="fill:none;stroke-width:1.8;stroke-linecap:butt;stroke-linejoin:miter;stroke:url(#linear0);stroke-miterlimit:4;" d="M 16 2.5 L 28 9.5 L 28 22.5 L 16 29.5 L 4 22.5 L 4 9.5 Z M 16 2.5 " transform="matrix(6,0,0,6,0,0)"/>
<path style=" stroke:none;fill-rule:nonzero;fill:url(#linear1);" d="M 63 96 L 96 57 L 129 96 L 96 135 Z M 63 96 "/>
</g>
</svg>
